<?xml version="1.0" encoding="UTF-8"?>
<svg width="14px" height="14px" viewBox="0 0 14 14" version="1.1" xmlns="http://www.w3.org/2000/svg" xmlns:xlink="http://www.w3.org/1999/xlink">
    <!-- Generator: sketchtool 41.2 (35397) - http://www.bohemiancoding.com/sketch -->
    <title>1A980ECE-AA69-46A6-8D35-0048702F8E6E</title>
    <desc>Created with sketchtool.</desc>
    <defs></defs>
    <g id="Page-1" stroke="none" stroke-width="1" fill="none" fill-rule="evenodd">
        <g id="Hover" transform="translate(-128.000000, -15.000000)" fill="#FFFFFF">
            <g id="x-white" transform="translate(128.000000, 15.000000)">
                <path d="M7,14 C10.8659932,14 14,10.8659932 14,7 C14,3.13400675 10.8659932,0 7,0 C3.13400675,0 0,3.13400675 0,7 C0,10.8659932 3.13400675,14 7,14 Z M7,13 C10.3137085,13 13,10.3137085 13,7 C13,3.6862915 10.3137085,1 7,1 C3.6862915,1 1,3.6862915 1,7 C1,10.3137085 3.6862915,13 7,13 Z" id="Combined-Shape"></path>
                <path d="M7.44974747,6.44974747 L7.44974747,3.44974747 L6.44974747,3.44974747 L6.44974747,6.44974747 L3.44974747,6.44974747 L3.44974747,7.44974747 L6.44974747,7.44974747 L6.44974747,10.4497475 L7.44974747,10.4497475 L7.44974747,7.44974747 L10.4497475,7.44974747 L10.4497475,6.44974747 L7.44974747,6.44974747 Z" id="Combined-Shape" transform="translate(6.949747, 6.949747) rotate(-315.000000) translate(-6.949747, -6.949747) "></path>
            </g>
        </g>
    </g>
</svg>